#!OML:ASF E:\I on waltz\AllaLogoMonkeySwing\Project 1\Capture day 1\Session 1\Subject1.ASF
:FULLY-SPECIFIED
:DEGREES
840
root 1.89566 17.7735 2.03211 536.471 207.137 181.608
lowerback 11.9504 1.60116 -3.54879
upperback 2.11414 1.69712 0.907854
thorax -4.61226 0.88644 2.68593
lowerneck -12.6545 6.07449 4.47361
upperneck 17.5994 9.68369 -11.3317
head 8.34835 3.81357 -3.42828
rclavicle 8.24956e-015 5.96354e-015
rhumerus -32.5181 -33.0832 -68.3214
rradius 20.2455
rwrist 14.4511
rhand -5.26105 -35.0801
rfingers 7.12502
rthumb 20.5426 -64.0132
lclavicle 8.24956e-015 5.96354e-015
lhumerus -42.2663 20.224 76.8599
lradius 47.4553
lwrist 3.79943
lhand -8.16656 -12.5702
lfingers 7.12502
lthumb 17.7486 16.6399
rfemur -8.15203 -14.079 12.6922
rtibia 47.0447
rfoot -14.7551 -15.9654
rtoes 22.48
lfemur -2.21009 3.08258 -20.2553
ltibia 16.1808
lfoot -11.2968 0.588259
ltoes -34.2278
841
root 1.86056 17.7846 2.03723 536.515 205.793 181.443
lowerback 11.8644 1.55382 -3.595
upperback 2.1717 1.63447 0.934178
thorax -4.50162 0.853959 2.75191
lowerneck -12.6365 5.92878 4.50163
upperneck 17.6341 9.47501 -11.3011
head 8.33746 3.72071 -3.44946
rclavicle 4.08254e-014 -1.92821e-014
rhumerus -31.7862 -31.3935 -69.8365
rradius 21.1654
rwrist 12.7198
rhand -5.12118 -34.7581
rfingers 7.12502
rthumb 20.677 -63.6766
lclavicle 4.08254e-014 -1.92821e-014
lhumerus -42.4798 20.6259 76.1331
lradius 46.7733
lwrist 3.88291
lhand -8.19922 -12.2172
lfingers 7.12502
lthumb 17.7171 16.9956
rfemur -8.09226 -12.2293 12.9382
rtibia 45.2669
rfoot -16.3496 -12.6292
rtoes 19.0759
lfemur -2.18881 2.39316 -20.1819
ltibia 16.1307
lfoot -11.4325 0.0591212
ltoes -33.8869
842
root 1.82249 17.7954 2.04012 536.572 204.62 181.249
lowerback 11.8402 1.55842 -3.60947
upperback 2.16219 1.64272 0.975073
thorax -4.50046 0.859117 2.80201
lowerneck -12.5913 5.77774 4.46581
upperneck 17.7605 9.26123 -11.1697
head 8.3433 3.62834 -3.42794
rclavicle -3.08862e-014 -9.93923e-016
rhumerus -31.195 -29.1551 -71.4515
rradius 22.3752
rwrist 10.3591
rhand -5.27755 -35.1644
rfingers 7.12502
rthumb 20.5267 -64.0992
lclavicle -3.08862e-014 -9.93923e-016
lhumerus -42.7894 21.1213 75.3357
lradius 46.0079
lwrist 3.79513
lhand -8.00518 -11.8143
lfingers 7.12502
lthumb 17.9039 17.3816
rfemur -7.90459 -9.9748 13.2863
rtibia 42.9264
rfoot -17.8013 -9.84307
rtoes 14.7275
lfemur -2.12494 1.70473 -20.0255
ltibia 15.9812
lfoot -11.413 -0.393711
ltoes -34.096
843
root 1.78442 17.8071 2.04193 536.685 203.532 180.921
lowerback 11.854 1.54919 -3.45625
upperback 2.10857 1.6527 1.02964
thorax -4.56259 0.864629 2.77022
lowerneck -12.6686 5.63906 4.30618
upperneck 18.0873 9.04827 -10.7477
head 8.41814 3.54452 -3.28645
rclavicle 4.99446e-014 -8.54774e-015
rhumerus -30.7706 -27.2488 -72.7821
rradius 23.5617
rwrist 8.48572
rhand -5.53959 -35.6661
rfingers 7.12502
rthumb 20.2749 -64.6279
lclavicle 4.99446e-014 -8.54774e-015
lhumerus -43.0927 21.6448 74.4693
lradius 45.0805
lwrist 3.59121
lhand -7.96557 -11.697
lfingers 7.12502
lthumb 17.942 17.4954
rfemur -7.6745 -7.59671 13.7911
rtibia 40.3849
rfoot -19.0208 -7.69289
rtoes 12.445
lfemur -2.04844 1.06147 -19.6909
ltibia 15.7764
lfoot -11.4174 -0.821125
ltoes -34.5863
844
root 1.74457 17.8189 2.04238 536.831 202.518 180.562
lowerback 11.8211 1.54818 -3.23234
upperback 2.04804 1.68311 1.06341
thorax -4.60499 0.8787 2.6741
lowerneck -12.8693 5.48379 4.04065
upperneck 18.5286 8.79162 -10.088
head 8.53547 3.44886 -3.05035
rclavicle -1.61513e-015 -7.35503e-015
rhumerus -30.3981 -25.9824 -73.8039
rradius 24.5055
rwrist 7.32267
rhand -5.84571 -35.8374
rfingers 7.12502
rthumb 19.9807 -64.8301
lclavicle -1.61513e-015 -7.35503e-015
lhumerus -43.3263 22.0945 73.5675
lradius 44.1328
lwrist 3.48949
lhand -8.01001 -11.5507
lfingers 7.12502
lthumb 17.8992 17.6456
rfemur -7.38403 -5.20772 14.326
rtibia 37.7493
rfoot -19.8931 -5.86931
rtoes 12.0768
lfemur -2.04552 0.534736 -19.2656
ltibia 15.6612
lfoot -11.5345 -1.267
ltoes -34.9253
845
root 1.70033 17.8266 2.04272 536.881 201.486 180.348
lowerback 11.7316 1.53212 -3.15486
upperback 2.04369 1.67691 1.09468
thorax -4.5584 0.874499 2.66562
lowerneck -12.9004 5.32211 3.77712
upperneck 18.6552 8.53648 -9.62423
head 8.52882 3.35179 -2.88167
rclavicle 1.98785e-016 9.14409e-015
rhumerus -29.9499 -24.7567 -74.7486
rradius 25.4135
rwrist 6.35719
rhand -5.90843 -35.7999
rfingers 7.12502
rthumb 19.9204 -64.799
lclavicle 1.98785e-016 9.14409e-015
lhumerus -43.5319 22.5587 72.7415
lradius 43.2552
lwrist 3.47827
lhand -7.97969 -11.2788
lfingers 7.12502
lthumb 17.9284 17.9148
rfemur -6.85505 -2.73615 14.7236
rtibia 34.9419
rfoot -20.471 -4.3389
rtoes 11.0694
lfemur -2.07591 -0.00473366 -18.979
ltibia 15.6889
lfoot -11.7931 -1.70506
ltoes -35.0567
846
root 1.65459 17.8292 2.04398 536.855 200.35 180.241
lowerback 11.5808 1.45167 -3.17857
upperback 2.11149 1.57499 1.13115
thorax -4.39828 0.821614 2.73655
lowerneck -12.865 5.18834 3.6979
upperneck 18.5461 8.34229 -9.54675
head 8.46374 3.26804 -2.86615
rclavicle -2.36057e-014 9.14409e-015
rhumerus -29.3405 -23.4136 -75.683
rradius 26.2971
rwrist 5.49402
rhand -5.83641 -35.67
rfingers 7.12502
rthumb 19.9896 -64.6618
lclavicle -2.36057e-014 9.14409e-015
lhumerus -43.6441 23.2524 71.9371
lradius 42.2322
lwrist 3.22873
lhand -7.87399 -10.8113
lfingers 7.12502
lthumb 18.0301 18.373
rfemur -6.20244 -0.391815 14.9948
rtibia 32.229
rfoot -20.8571 -3.03229
rtoes 9.99545
lfemur -2.13556 -0.632699 -18.8427
ltibia 15.8296
lfoot -12.0988 -2.16899
ltoes -34.6994
847
root 1.60757 17.8281 2.04004 536.87 199.188 180.135
lowerback 11.4688 1.36033 -3.15642
upperback 2.13367 1.46113 1.13086
thorax -4.30429 0.763664 2.74324
lowerneck -12.9297 5.07215 3.76444
upperneck 18.5294 8.16492 -9.54059
head 8.45891 3.18941 -2.89526
rclavicle 4.72114e-014 -3.77691e-015
rhumerus -28.7582 -22.1336 -76.5562
rradius 27.0788
rwrist 4.5966
rhand -5.97881 -35.6834
rfingers 7.12502
rthumb 19.8527 -64.6895
lclavicle 4.72114e-014 -3.77691e-015
lhumerus -43.7869 23.9313 71.0925
lradius 41.2165
lwrist 2.78958
lhand -7.78753 -10.1603
lfingers 7.12502
lthumb 18.1133 19.0163
rfemur -5.64973 1.70787 15.2478
rtibia 29.7604
rfoot -20.8526 -1.95812
rtoes 10.0301
lfemur -2.36617 -1.28134 -18.7088
ltibia 16.1451
lfoot -12.3594 -2.68111
ltoes -34.0338
848
root 1.55839 17.8239 2.02877 536.877 198.1 180.037
lowerback 11.5339 1.31694 -3.0724
upperback 2.07596 1.41043 1.0885
thorax -4.39405 0.739875 2.65765
lowerneck -13.0251 4.91913 3.63573
upperneck 18.6087 7.92406 -9.24241
head 8.46591 3.09196 -2.80124
rclavicle -6.21202e-015 -1.78906e-015
rhumerus -28.3641 -20.9397 -77.315
rradius 27.8719
rwrist 3.63176
rhand -6.12471 -35.7564
rfingers 7.12502
rthumb 19.7125 -64.7769
lclavicle -6.21202e-015 -1.78906e-015
lhumerus -44.0624 24.4046 70.283
lradius 40.432
lwrist 2.4672
lhand -7.77403 -9.96469
lfingers 7.12502
lthumb 18.1263 19.2107
rfemur -5.15283 3.42678 15.4856
rtibia 27.5622
rfoot -20.3671 -1.47038
rtoes 9.33418
lfemur -2.67456 -2.00113 -18.5733
ltibia 16.5879
lfoot -12.5092 -3.0344
ltoes -32.4601
849
root 1.50656 17.8161 2.01426 536.898 197.063 179.841
lowerback 11.6408 1.28093 -2.87869
upperback 2.00836 1.38335 1.07725
thorax -4.51738 0.726792 2.53842
lowerneck -13.1008 4.71237 3.29637
upperneck 18.6769 7.6113 -8.7508
head 8.44534 2.96585 -2.61602
rclavicle 4.16205e-014 -1.6201e-014
rhumerus -28.0005 -19.952 -77.929
rradius 28.5675
rwrist 2.78283
rhand -6.29961 -35.5233
rfingers 7.12502
rthumb 19.5443 -64.561
lclavicle 4.16205e-014 -1.6201e-014
lhumerus -44.2758 24.8513 69.5366
lradius 39.614
lwrist 2.22203
lhand -7.71405 -10.2754
lfingers 7.12502
lthumb 18.184 18.8946
rfemur -4.69263 4.64616 15.824
rtibia 25.638
rfoot -18.8638 -1.20885
rtoes 11.8577
lfemur -2.95309 -2.91184 -18.2959
ltibia 17.0409
lfoot -13.1085 -3.25523
ltoes -33.7311
850
root 1.4528 17.8058 1.99719 536.983 196.103 179.639
lowerback 11.6758 1.25162 -2.71064
upperback 1.93489 1.36541 1.08488
thorax -4.60902 0.718102 2.45313
lowerneck -13.2311 4.54641 3.07516
upperneck 18.7449 7.35518 -8.37756
head 8.45055 2.86183 -2.48242
rclavicle -8.84592e-015 6.26172e-015
rhumerus -27.6491 -19.0716 -78.4761
rradius 29.2031
rwrist 2.02148
rhand -6.70569 -35.2053
rfingers 7.12502
rthumb 19.1539 -64.2821
lclavicle -8.84592e-015 6.26172e-015
lhumerus -44.3971 25.5034 68.7612
lradius 38.6917
lwrist 1.7836
lhand -7.60484 -10.6201
lfingers 7.12502
lthumb 18.289 18.5401
rfemur -4.53671 4.12837 16.2749
rtibia 25.88
rfoot -18.1915 -2.13227
rtoes 12.3389
lfemur -3.28146 -3.86994 -17.9909
ltibia 17.415
lfoot -13.2181 -3.35361
ltoes -33.0609
851
root 1.39963 17.7968 1.97757 537.032 195.254 179.631
lowerback 11.736 1.26923 -2.7287
upperback 1.85658 1.38339 1.04432
thorax -4.72506 0.729929 2.41647
lowerneck -13.3635 4.43451 3.02077
upperneck 18.7692 7.17173 -8.17783
head 8.46066 2.78814 -2.4259
rclavicle -3.8266e-015 -5.46658e-015
rhumerus -27.3291 -18.1355 -78.99
rradius 29.8449
rwrist 1.32473
rhand -7.05131 -35.1612
rfingers 7.12502
rthumb 18.8215 -64.2706
lclavicle -3.8266e-015 -5.46658e-015
lhumerus -44.4922 26.3905 67.9734
lradius 37.8426
lwrist 1.10609
lhand -7.65633 -10.7256
lfingers 7.12502
lthumb 18.2395 18.4392
rfemur -4.2937 3.47198 16.471
rtibia 25.7301
rfoot -17.9091 -2.7458
rtoes 11.0772
lfemur -3.56968 -4.67638 -17.9298
ltibia 17.5886
lfoot -13.2642 -3.37341
ltoes -32.9682
852
root 1.34603 17.7922 1.95687 537.081 194.486 179.626
lowerback 11.8127 1.33954 -2.7208
upperback 1.78941 1.47402 1.00601
thorax -4.8426 0.776922 2.3556
lowerneck -13.4043 4.28573 2.92257
upperneck 18.6642 6.94407 -8.01151
head 8.4082 2.69329 -2.37953
rclavicle 1.82882e-014 2.68359e-015
rhumerus -27.0312 -17.3055 -79.3768
rradius 30.4478
rwrist 0.628002
rhand -7.19629 -35.2723
rfingers 7.12502
rthumb 18.682 -64.3951
lclavicle 1.82882e-014 2.68359e-015
lhumerus -44.5097 27.1823 67.4182
lradius 37.0863
lwrist 0.495652
lhand -8.16045 -10.8089
lfingers 7.12502
lthumb 17.7544 18.4006
rfemur -3.81685 2.66627 16.6093
rtibia 24.9277
rfoot -17.4251 -3.25047
rtoes 10.2778
lfemur -3.76097 -5.38401 -17.8578
ltibia 17.5909
lfoot -13.2828 -3.3427
ltoes -33.3856
853
root 1.28998 17.7956 1.93721 537.234 193.803 179.449
lowerback 11.8434 1.43119 -2.5213
upperback 1.71399 1.62095 1.01259
thorax -4.94277 0.848375 2.22477
lowerneck -13.4979 4.12237 2.68678
upperneck 18.5474 6.70047 -7.72616
head 8.35221 2.59186 -2.27129
rclavicle -3.75517e-014 -2.98177e-015
rhumerus -26.819 -16.7318 -79.6307
rradius 30.9391
rwrist 0.0420169
rhand -7.27563 -35.2777
rfingers 7.12502
rthumb 18.6057 -64.4079
lclavicle -3.75517e-014 -2.98177e-015
lhumerus -44.4646 27.688 67.1256
lradius 36.4063
lwrist 0.182915
lhand -8.94572 -10.8692
lfingers 7.12502
lthumb 16.9987 18.407
rfemur -3.37248 1.93211 16.9446
rtibia 24.0146
rfoot -16.9079 -3.46586
rtoes 10.321
lfemur -3.91076 -6.02889 -17.5328
ltibia 17.4533
lfoot -13.2693 -3.28746
ltoes -33.4644
